<?xml version="1.0" encoding="UTF-8" standalone="no"?>
<!-- Created with Inkscape (http://www.inkscape.org/) -->

<svg
   xmlns:dc="http://purl.org/dc/elements/1.1/"
   xmlns:cc="http://creativecommons.org/ns#"
   xmlns:rdf="http://www.w3.org/1999/02/22-rdf-syntax-ns#"
   xmlns:svg="http://www.w3.org/2000/svg"
   xmlns="http://www.w3.org/2000/svg"
   xmlns:sodipodi="http://sodipodi.sourceforge.net/DTD/sodipodi-0.dtd"
   xmlns:inkscape="http://www.inkscape.org/namespaces/inkscape"
   width="500"
   height="500"
   viewBox="0 0 132.29168 132.29168"
   version="1.1"
   id="svg8"
   inkscape:version="0.92.4 (5da689c313, 2019-01-14)"
   sodipodi:docname="monacoin.svg">
  <defs
     id="defs2" />
  <sodipodi:namedview
     id="base"
     pagecolor="#ffffff"
     bordercolor="#666666"
     borderopacity="1.0"
     inkscape:pageopacity="0.0"
     inkscape:pageshadow="2"
     inkscape:zoom="0.35"
     inkscape:cx="-458.57143"
     inkscape:cy="548.57143"
     inkscape:document-units="mm"
     inkscape:current-layer="layer2"
     showgrid="false"
     inkscape:snap-others="false"
     inkscape:window-width="2666"
     inkscape:window-height="1712"
     inkscape:window-x="0"
     inkscape:window-y="32"
     inkscape:window-maximized="1"
     units="px" />
  <metadata
     id="metadata5">
    <rdf:RDF>
      <cc:Work
         rdf:about="">
        <dc:format>image/svg+xml</dc:format>
        <dc:type
           rdf:resource="http://purl.org/dc/dcmitype/StillImage" />
        <dc:title></dc:title>
      </cc:Work>
    </rdf:RDF>
  </metadata>
  <g
     inkscape:label="Layer 1"
     inkscape:groupmode="layer"
     id="layer1"
     transform="translate(0,-164.70833)" />
  <g
     inkscape:groupmode="layer"
     id="layer2"
     inkscape:label="Layer 2"
     transform="translate(0,-164.70833)">
    <g
       id="g114"
       transform="translate(-246.0625,-33.63988)">
      <path
         style="fill:#fefefd;stroke-width:0.26458335"
         d="m 246.0625,264.49405 v -66.14584 h 66.14584 66.14583 v 66.14584 66.14583 H 312.20834 246.0625 Z"
         id="path130"
         inkscape:connector-curvature="0" />
      <path
         style="fill:#e6e3db;stroke-width:0.26458335"
         d="m 306.78438,328.35915 c -13.74985,-1.41214 -25.81775,-6.52976 -36.02105,-15.27544 -16.93983,-14.51983 -25.13523,-37.2087 -21.37374,-59.173 1.0811,-6.31285 2.78624,-11.48488 5.80072,-17.59479 6.23433,-12.63606 16.20384,-22.60557 28.8399,-28.8399 4.60283,-2.27092 7.93883,-3.54073 12.10711,-4.60844 17.84841,-4.57187 36.48064,-1.47409 51.50337,8.56293 13.59304,9.08181 23.24428,22.86334 26.87703,38.37916 1.31956,5.63601 1.58053,8.08849 1.57664,14.81667 -0.004,7.13282 -0.3363,9.9915 -1.84906,15.91291 -5.73565,22.45104 -23.5463,40.26142 -45.99176,45.99105 -5.364,1.36926 -8.6053,1.77538 -14.85458,1.86122 -3.05594,0.042 -6.0325,0.0274 -6.61458,-0.0324 z m -17.37342,-35.43482 c 0.16055,-1.24376 0.36205,-2.37485 0.44776,-2.51354 0.0857,-0.13869 1.57757,-0.25216 3.31523,-0.25216 h 3.15938 v -2.76918 -2.76917 l -2.84427,-0.0751 -2.84427,-0.0751 0.0727,-1.5683 c 0.04,-0.86256 0.2034,-1.72577 0.36313,-1.91823 0.20319,-0.24483 1.03838,-0.34993 2.78082,-0.34993 h 2.4904 l -0.0754,-2.71198 -0.0754,-2.71198 -2.15846,-0.0765 c -1.39286,-0.0493 -2.19737,-0.19011 -2.26816,-0.39688 -0.12053,-0.35204 2.11967,-19.00374 2.30471,-19.18878 0.55788,-0.55788 1.42781,1.77881 7.41344,19.91289 l 6.51085,19.72526 h 4.44768 4.44768 l 2.79274,-8.53281 c 1.536,-4.69305 4.41471,-13.49973 6.39712,-19.57041 1.98241,-6.07068 3.72883,-11.11451 3.88093,-11.20851 0.15209,-0.094 0.37492,-0.0682 0.49515,0.0574 0.12024,0.12556 1.30605,8.62221 2.63514,18.88143 1.32908,10.25921 2.48374,19.04007 2.5659,19.51302 l 0.14938,0.85989 h 6.18827 c 5.7766,0 6.18826,-0.0316 6.18826,-0.47499 0,-0.26124 -1.78594,-13.85082 -3.96875,-30.19906 -2.18281,-16.34824 -3.96875,-29.82668 -3.96875,-29.95209 0,-0.12542 -3.49607,-0.22803 -7.76904,-0.22803 h -7.76903 l -0.78634,2.4474 c -7.09289,22.0759 -11.07549,33.80052 -11.48132,33.80052 -0.35093,0 -1.0113,-1.73287 -3.10048,-8.13594 -1.46002,-4.47476 -4.12072,-12.63054 -5.91267,-18.12395 l -3.25808,-9.98803 h -7.9841 -7.9841 l -0.1572,0.99219 c -0.0865,0.5457 -1.22907,9.44563 -2.53913,19.77761 -1.31005,10.33198 -2.44209,19.05099 -2.51563,19.37558 -0.13267,0.58554 -0.17876,0.59072 -5.88465,0.66146 l -5.75094,0.0713 -0.0754,2.71198 -0.0754,2.71198 h 5.01469 c 2.75809,0 5.20304,0.0723 5.43322,0.1606 0.43923,0.16855 0.51517,1.34205 0.18651,2.88211 l -0.16939,0.79375 -5.15712,0.13229 -5.15711,0.13229 -0.0753,2.70584 -0.0753,2.70583 4.70554,0.0723 4.70555,0.0723 -0.0628,2.4474 -0.0628,2.44739 h 6.31135 6.31135 z"
         id="path128"
         inkscape:connector-curvature="0" />
      <path
         style="fill:#e1ddd3;stroke-width:0.26458335"
         d="m 304.27083,327.84268 c -18.36864,-2.35676 -34.66601,-12.54438 -45.02364,-28.14467 -6.59026,-9.926 -10.06554,-20.87684 -10.45837,-32.95501 -0.25271,-7.76983 0.72241,-14.67581 3.08495,-21.84817 6.41967,-19.48931 21.24604,-34.31568 40.73535,-40.73535 13.85677,-4.56435 29.13394,-4.16078 42.85004,1.13194 8.3683,3.22913 17.36293,9.31214 23.40186,15.82652 11.16762,12.04687 17.1119,27.13858 17.1119,43.44478 0,7.52879 -0.91694,13.32658 -3.18418,20.13351 -7.86117,23.60156 -28.88237,40.61088 -53.49237,43.28339 -3.46211,0.37597 -11.60643,0.30174 -15.02554,-0.13694 z m -14.66624,-34.71239 c 0.15549,-1.20324 0.39541,-2.30041 0.53315,-2.43815 0.13774,-0.13774 1.61786,-0.28436 3.28916,-0.32583 l 3.03873,-0.0754 0.0749,-2.81994 0.0748,-2.81993 -2.76541,-0.0905 c -1.52098,-0.0498 -2.85393,-0.17928 -2.96212,-0.28781 -0.10818,-0.10854 -0.0881,-0.88244 0.0447,-1.7198 l 0.24143,-1.52246 2.64583,-0.13229 2.64584,-0.13229 0.0751,-2.84427 0.0751,-2.84427 h -2.09322 c -1.35182,0 -2.19043,-0.11714 -2.36767,-0.33073 -0.19248,-0.23195 0.0639,-3.07939 0.8584,-9.53385 0.62306,-5.06172 1.20824,-9.27852 1.30038,-9.37066 0.0922,-0.0922 0.23173,-0.10335 0.31019,-0.0249 0.0785,0.0785 3.09481,8.99822 6.703,19.8217 l 6.56035,19.67905 h 4.59438 4.59437 L 323.3457,276.143 c 3.44835,-10.54622 6.38729,-19.35685 6.53097,-19.57916 0.14369,-0.22232 0.34601,-0.32349 0.44962,-0.22483 0.1036,0.0987 1.3074,8.79023 2.67512,19.31459 1.36772,10.52436 2.54334,19.28402 2.61249,19.46593 0.0958,0.25192 1.64083,0.33073 6.48403,0.33073 l 6.3583,10e-6 -0.0119,-0.59532 c -0.007,-0.32742 -1.82238,-14.1089 -4.03522,-30.62552 l -4.02335,-30.03021 h -7.91995 -7.91995 l -5.86982,17.99167 c -3.76625,11.54402 -5.99275,17.99167 -6.21288,17.99167 -0.36098,0 -0.6335,-0.7941 -7.9225,-23.0849 l -4.26098,-13.03073 h -8.043 c -4.42364,0 -8.10079,0.0935 -8.17144,0.20784 -0.0707,0.11431 -1.27939,9.19283 -2.68609,20.17448 -1.4067,10.98165 -2.67825,20.11314 -2.82568,20.29219 -0.19317,0.23462 -1.83062,0.34547 -5.86234,0.39687 l -5.59429,0.0713 v 2.77813 2.77812 l 5.29166,0.13229 5.29167,0.13229 -0.0313,1.53061 c -0.0172,0.84183 -0.11611,1.61573 -0.21978,1.71979 -0.10366,0.10405 -2.47083,0.24872 -5.26037,0.32148 l -5.07188,0.13229 v 2.77813 2.77812 l 4.62348,0.0726 c 2.54291,0.04 4.71013,0.1593 4.81604,0.26521 0.10591,0.10591 0.0712,1.06801 -0.077,2.13802 -0.14828,1.07 -0.20506,2.11364 -0.12618,2.31919 0.11914,0.31047 1.23072,0.36175 6.56606,0.30288 l 6.42264,-0.0709 z"
         id="path126"
         inkscape:connector-curvature="0" />
      <path
         style="fill:#dad4c8;stroke-width:0.26458335"
         d="m 305.85833,327.98148 c -12.03461,-1.29955 -24.16878,-6.33009 -33.46979,-13.87579 -10.46214,-8.48771 -18.28612,-20.57305 -21.54273,-33.27605 -3.91429,-15.26845 -2.25733,-30.95759 4.72914,-44.7783 3.06712,-6.06741 6.32326,-10.6121 11.2556,-15.70977 15.9581,-16.49301 39.21344,-22.97824 61.71338,-17.21005 4.0606,1.041 7.45488,2.32249 11.84253,4.47109 19.8949,9.74239 33.28254,29.19791 35.33304,51.34757 0.39059,4.21919 0.20263,11.01404 -0.41683,15.06887 -2.09015,13.68165 -8.23611,25.84834 -17.97855,35.59078 -9.74011,9.7401 -21.81815,15.84391 -35.59078,17.98629 -3.29143,0.51199 -12.60801,0.73815 -15.87501,0.38536 z M 289.5266,293.99509 c 0.11526,-0.72761 0.29529,-1.79917 0.40007,-2.38125 l 0.19051,-1.05834 3.24896,-0.0743 3.24895,-0.0744 -0.0747,-2.96835 -0.0747,-2.96835 -2.77813,-0.13229 -2.77812,-0.1323 0.086,-1.31975 c 0.0473,-0.72586 0.21072,-1.47 0.36313,-1.65364 0.18716,-0.22552 1.08525,-0.3339 2.76692,-0.3339 h 2.48981 l -0.0748,-2.97656 -0.0748,-2.97656 -2.18282,-0.0768 -2.18281,-0.0768 0.004,-0.8492 c 0.007,-1.4153 2.07265,-17.69983 2.26767,-17.87964 0.0999,-0.0921 0.23455,-0.0484 0.29922,0.0971 0.0647,0.14552 3.05469,9.01568 6.6445,19.71146 l 6.52694,19.44687 4.56689,0.0724 c 4.52714,0.0718 4.56922,0.0672 4.83591,-0.52917 0.14797,-0.33086 2.99645,-8.96244 6.32996,-19.18128 3.33351,-10.21884 6.17127,-18.77686 6.30612,-19.01783 0.15748,-0.2814 0.30804,-0.33642 0.4209,-0.15381 0.0966,0.15637 1.28822,8.84947 2.64795,19.318 1.35972,10.46852 2.55431,19.1665 2.65463,19.32883 0.12599,0.20384 2.14197,0.29515 6.5168,0.29515 h 6.33439 v -0.67167 c 0,-0.98196 -7.92378,-60.21083 -8.09144,-60.48212 -0.21013,-0.34 -15.64954,-0.29474 -15.86044,0.0465 -0.0938,0.15183 -2.76321,8.21832 -5.93194,17.92553 -3.8757,11.87296 -5.87902,17.64946 -6.12093,17.64946 -0.24186,0 -2.27121,-5.84737 -6.19815,-17.85937 l -5.83855,-17.85938 -8.23455,-0.0699 -8.23456,-0.0699 -0.15509,0.99592 c -0.0853,0.54776 -1.2273,9.44936 -2.53778,19.78134 -1.31047,10.33198 -2.44432,19.05331 -2.51966,19.38073 -0.13661,0.59365 -0.15233,0.59533 -5.62205,0.59937 -3.01679,0.002 -5.63828,0.10126 -5.82554,0.22007 -0.25039,0.15886 -0.3204,0.94543 -0.26459,2.97252 l 0.0759,2.75648 5.29166,0.13229 c 5.95514,0.14888 5.68372,0.032 5.2237,2.24896 l -0.21961,1.05833 -5.14788,0.1323 -5.14787,0.13229 v 2.91041 2.91042 l 4.6302,0.13229 4.63021,0.13229 -0.0822,2.45206 -0.0822,2.45205 6.56211,-0.0708 6.56212,-0.0708 z"
         id="path124"
         inkscape:connector-curvature="0" />
      <path
         style="fill:#cdc6b5;stroke-width:0.26458335"
         d="m 307.31354,327.97974 c -5.87402,-0.48303 -13.00943,-2.13477 -18.2986,-4.23585 -3.36694,-1.33749 -8.54482,-4.08144 -11.90097,-6.30675 -15.19512,-10.07522 -25.34518,-26.47845 -27.73435,-44.82071 -0.47137,-3.61887 -0.53612,-11.18382 -0.12793,-14.94583 3.03192,-27.94264 24.44936,-50.68826 52.37331,-55.62118 4.63921,-0.81955 13.84787,-1.02435 18.52084,-0.41192 15.96889,2.09286 30.10123,9.68438 40.42237,21.71384 6.76914,7.88954 11.95511,18.39066 13.9286,28.20416 1.04623,5.20256 1.28721,7.69077 1.27869,13.20313 -0.0116,7.51456 -1.01804,13.75816 -3.27087,20.29161 -3.30919,9.59704 -8.06683,17.19002 -15.30845,24.43165 -7.24163,7.24162 -14.83461,11.99926 -24.43165,15.30845 -7.64493,2.63609 -17.36579,3.85426 -25.45099,3.1894 z M 289.13877,295.4873 c 0.19082,-0.12102 0.48755,-1.21713 0.66146,-2.44334 l 0.3154,-2.22387 3.0968,-0.13229 c 1.70325,-0.0728 3.22567,-0.26169 3.38317,-0.41984 0.17915,-0.17989 0.25796,-1.31908 0.21049,-3.04271 l -0.0759,-2.75516 -2.77813,-0.13229 -2.77812,-0.1323 -0.0856,-0.8965 c -0.0471,-0.49308 -0.0151,-1.17769 0.0712,-1.52136 0.15085,-0.60105 0.2511,-0.62484 2.63293,-0.62484 1.79621,0 2.56027,-0.10142 2.78264,-0.36936 0.20062,-0.24173 0.28038,-1.31599 0.23083,-3.10886 l -0.0757,-2.73949 -2.11574,-0.0784 c -1.16366,-0.0432 -2.21145,-0.17416 -2.32844,-0.29115 -0.25435,-0.25435 1.86237,-17.78647 2.18702,-18.11434 0.12466,-0.1259 3.10297,8.4398 6.66202,19.16015 3.54012,10.66332 6.59537,19.54664 6.78944,19.74071 0.26345,0.26345 1.38188,0.35287 4.41338,0.35287 2.23327,0 4.24751,-0.0718 4.47608,-0.15948 0.27773,-0.10657 1.87001,-4.60442 4.80032,-13.55989 7.47858,-22.85563 8.37438,-25.49211 8.58387,-25.26371 0.1118,0.12189 1.30849,8.79412 2.6593,19.27162 1.35082,10.4775 2.57023,19.19883 2.70981,19.38073 0.29297,0.38181 12.2419,0.48139 12.83204,0.10693 0.26958,-0.17104 -0.50322,-6.51609 -3.73341,-30.65318 -2.24035,-16.74062 -4.15652,-30.57205 -4.25816,-30.73651 -0.27687,-0.44798 -15.65804,-0.41992 -15.93553,0.0291 -0.11153,0.18046 -2.7849,8.22843 -5.94084,17.88439 -3.15593,9.65596 -5.85755,17.67578 -6.00359,17.82183 -0.17767,0.17766 -1.33171,-3.00463 -3.48727,-9.61616 -1.77194,-5.43493 -4.43321,-13.57263 -5.91393,-18.08378 l -2.6922,-8.20208 -8.10041,-0.0699 c -6.28498,-0.0542 -8.15746,0.005 -8.35493,0.26458 -0.13999,0.18398 -1.35612,9.02607 -2.70252,19.64909 -1.34641,10.62302 -2.53522,19.67177 -2.6418,20.10833 l -0.1938,0.79375 -5.67202,0.1323 -5.67202,0.13229 v 3.04271 3.0427 l 5.29166,0.1323 5.29167,0.13229 -0.0928,1.19062 c -0.0511,0.65485 -0.21448,1.33946 -0.36313,1.52136 -0.19887,0.24335 -1.58974,0.33073 -5.26496,0.33073 h -4.99469 v 3.0144 c 0,2.50466 0.0708,3.04155 0.41852,3.175 0.23018,0.0883 2.37331,0.1606 4.7625,0.1606 3.75734,0 4.34398,0.0557 4.34398,0.41234 0,0.22678 -0.13064,1.25439 -0.29033,2.28357 -0.2359,1.52039 -0.22349,1.9136 0.0661,2.09715 0.45895,0.29086 12.41548,0.29684 12.87337,0.006 z"
         id="path122"
         inkscape:connector-curvature="0" />
      <path
         style="fill:#c3baa6;stroke-width:0.26458335"
         d="m 305.06458,327.61682 c -14.90792,-1.90646 -28.01992,-8.41225 -38.23342,-18.9703 -16.50874,-17.06565 -22.0539,-41.66048 -14.48827,-64.26081 6.77739,-20.2457 24.05496,-36.15594 44.78419,-41.24004 12.12662,-2.9742 25.51279,-2.26258 36.9731,1.96553 15.34548,5.66149 27.81037,16.89389 35.12313,31.65027 7.31162,14.75407 8.48675,32.35795 3.21193,48.116 -7.36703,22.00836 -26.29694,38.198 -49.37899,42.23097 -4.76381,0.83235 -13.52297,1.07985 -17.99167,0.50838 z m -15.26809,-33.62173 c 0.11552,-0.87313 0.26906,-1.97083 0.34121,-2.43934 l 0.13117,-0.85184 3.23067,-0.0742 3.23067,-0.0742 0.0752,-3.02147 c 0.0558,-2.23928 -0.0127,-3.0773 -0.26458,-3.2371 -0.1869,-0.11859 -1.50797,-0.21744 -2.93572,-0.21967 l -2.5959,-0.004 0.17943,-1.25677 c 0.0987,-0.69122 0.25591,-1.34122 0.34939,-1.44444 0.0935,-0.10321 1.29997,-0.22227 2.68107,-0.26458 l 2.51108,-0.0769 0.0743,-3.07587 c 0.0857,-3.55018 0.21174,-3.39626 -2.78624,-3.40281 -1.53598,-0.003 -1.65399,-0.046 -1.65851,-0.59892 -0.01,-1.21941 1.9393,-16.74342 2.12914,-16.95649 0.1086,-0.12187 3.10802,8.51016 6.6654,19.1823 l 6.46796,19.40388 h 4.8602 4.8602 l 6.23045,-19.09429 c 3.42674,-10.50186 6.31386,-19.17771 6.41581,-19.27966 0.2823,-0.2823 0.29509,-0.19444 2.84429,19.54139 1.3124,10.16054 2.45448,18.58421 2.53795,18.71927 0.0868,0.14043 2.97736,0.24558 6.75075,0.24558 h 6.59897 v -0.82282 c 0,-0.89781 -7.87914,-60.21748 -8.07082,-60.76279 -0.0921,-0.26195 -1.88009,-0.31937 -8.2384,-0.26458 l -8.1208,0.07 -4.45598,13.62604 c -2.45079,7.49432 -5.05772,15.50128 -5.79318,17.79323 -0.73547,2.29195 -1.44309,4.16719 -1.57251,4.16719 -0.12941,0 -2.03411,-5.50664 -4.23265,-12.23698 -2.19855,-6.73034 -4.83356,-14.76706 -5.8556,-17.85938 l -1.85823,-5.62239 h -8.29676 c -4.72609,0 -8.36109,0.10409 -8.44624,0.24186 -0.0822,0.13302 -1.28547,9.15201 -2.6739,20.04218 -1.38843,10.89019 -2.57461,19.94916 -2.63596,20.13106 -0.0843,0.25009 -1.42375,0.33073 -5.49323,0.33073 -3.91746,0 -5.50604,0.0909 -5.83872,0.33419 -0.39368,0.28787 -0.44654,0.73713 -0.3813,3.24115 l 0.0757,2.90695 5.15207,0.0721 c 2.83363,0.0396 5.2541,0.1741 5.37881,0.29881 0.12471,0.12471 0.14425,0.77689 0.0434,1.44929 l -0.18333,1.22254 h -4.96464 c -3.92334,0 -5.02888,0.0774 -5.27086,0.36897 -0.2016,0.24291 -0.28046,1.35023 -0.23084,3.24114 l 0.0754,2.87218 4.72058,0.0724 4.72058,0.0723 -0.18832,2.51187 -0.18832,2.51187 6.84483,-0.0707 6.84482,-0.0707 z"
         id="path120"
         inkscape:connector-curvature="0" />
      <path
         style="fill:#b6ac93;stroke-width:0.26458335"
         d="m 308.76875,327.69381 c -14.96751,-0.70378 -29.28126,-6.97808 -40.28994,-17.66072 -9.93495,-9.64073 -16.03314,-21.20572 -18.44996,-34.98968 -0.72358,-4.12682 -0.98878,-12.01356 -0.55356,-16.46255 2.72434,-27.8497 23.49943,-50.69375 50.9067,-55.97644 17.38379,-3.35068 35.61823,0.84129 49.88663,11.4686 3.50303,2.60909 9.92118,8.9803 12.41183,12.32102 6.81099,9.13564 10.81238,18.89708 12.35929,30.15062 0.48207,3.50702 0.55687,11.91607 0.1366,15.35772 -1.75114,14.34048 -8.05447,27.35342 -18.13036,37.42931 -9.40451,9.40451 -21.24113,15.46363 -34.65119,17.73781 -3.4012,0.5768 -9.09159,0.83751 -13.62604,0.62431 z m -19.33492,-31.96076 c 0.23157,-0.14657 0.48624,-1.08728 0.66146,-2.44335 l 0.28492,-2.20503 3.0266,-0.0753 c 1.71951,-0.0428 3.17987,-0.20248 3.3815,-0.36981 0.26787,-0.22231 0.33669,-1.04729 0.28069,-3.36431 l -0.0742,-3.06977 -2.84427,-0.0751 -2.84427,-0.0751 0.004,-0.71865 c 0.009,-1.85677 0.0856,-1.90928 2.77296,-1.90928 1.77171,0 2.535,-0.10208 2.7562,-0.3686 0.20248,-0.24398 0.28052,-1.38449 0.23083,-3.37344 l -0.0751,-3.00484 -2.11574,-0.0784 c -1.16366,-0.0431 -2.19657,-0.16221 -2.29535,-0.26458 -0.17906,-0.18555 1.75958,-16.67281 1.98722,-16.90045 0.0659,-0.0659 2.99621,8.50943 6.51182,19.05627 4.16315,12.48949 6.5329,19.23014 6.79607,19.33112 0.62605,0.24024 8.91574,0.17485 9.30724,-0.0734 0.19112,-0.1212 3.08057,-8.60258 6.421,-18.84751 6.94408,-21.2972 6.30698,-19.39818 6.45736,-19.2478 0.0641,0.0641 1.19397,8.44528 2.51082,18.62485 1.31685,10.17957 2.50921,18.7762 2.64968,19.10362 0.25492,0.59416 0.26785,0.5953 6.67723,0.59126 3.532,-0.002 6.58903,-0.10991 6.79341,-0.2393 0.31184,-0.19743 -0.27937,-5.12112 -3.67684,-30.62147 -2.22664,-16.71242 -4.14708,-30.65411 -4.26765,-30.98153 l -0.21921,-0.59532 h -8.08984 -8.08984 l -0.34725,0.8599 c -0.19098,0.47294 -2.83405,8.50904 -5.87347,17.85799 -3.03943,9.34895 -5.59292,16.99871 -5.67443,16.99948 -0.0815,7.9e-4 -2.74337,-7.94604 -5.91527,-17.65955 -3.1719,-9.71352 -5.90318,-17.74841 -6.06952,-17.85533 -0.16634,-0.10691 -3.94903,-0.19621 -8.40598,-0.19844 -6.17281,-0.003 -8.16501,0.0747 -8.36153,0.32668 -0.1419,0.1819 -1.39954,9.29009 -2.79477,20.2404 -1.39523,10.95032 -2.61042,20.02884 -2.70043,20.17448 -0.10076,0.16303 -2.28971,0.26481 -5.69499,0.26481 -6.50945,0 -6.07911,-0.24349 -6.07911,3.43959 0,3.66526 -0.37386,3.43958 5.69785,3.43958 h 5.15006 v 0.9044 c 0,1.80573 0.1961,1.74143 -5.31066,1.74143 -5.8986,0 -5.53725,-0.23072 -5.53725,3.53558 0,1.9309 0.0962,2.60823 0.41577,2.92781 0.34538,0.34539 1.17765,0.41578 4.91582,0.41578 h 4.50004 l -0.14265,0.7276 c -0.43388,2.2132 -0.48663,3.83565 -0.132,4.06026 0.4832,0.30605 12.95705,0.29937 13.44143,-0.007 z"
         id="path118"
         inkscape:connector-curvature="0" />
      <path
         style="fill:#b2a78c;stroke-width:0.26458335"
         d="m 307.35224,327.4532 c -29.76561,-2.47955 -53.55506,-25.19429 -57.44222,-54.84722 -0.47282,-3.60694 -0.53819,-11.16567 -0.12916,-14.93538 3.14951,-29.0264 26.57763,-52.45452 55.60403,-55.60403 3.76971,-0.40903 11.32844,-0.34366 14.93538,0.12916 8.64892,1.13378 16.72506,3.90169 24.03494,8.23744 28.30943,16.79132 38.97644,52.17981 24.62948,81.70983 -6.20115,12.76369 -16.35683,22.91904 -29.1274,29.12648 -6.2824,3.05372 -13.24642,5.12593 -19.84375,5.9047 -3.55752,0.41995 -9.41893,0.54911 -12.6613,0.27902 z m -17.90218,-31.47154 c 0.51583,-0.27606 0.6611,-0.77879 0.92928,-3.21594 l 0.16439,-1.49394 3.16904,-0.0936 c 2.45437,-0.0725 3.22562,-0.18306 3.41992,-0.49042 0.37697,-0.59634 0.32721,-6.17593 -0.0585,-6.56166 -0.20375,-0.20375 -1.24648,-0.3175 -2.91042,-0.3175 h -2.59292 v -1.05833 -1.05834 h 2.39865 c 3.49171,0 3.42219,0.0744 3.42219,-3.66056 0,-2.06827 -0.10654,-3.21931 -0.3175,-3.43027 -0.19344,-0.19344 -1.13543,-0.3175 -2.4107,-0.3175 h -2.09319 l 0.14298,-0.8599 c 0.0786,-0.47294 0.53438,-4.10238 1.01277,-8.06542 0.47839,-3.96304 0.95208,-7.11819 1.05264,-7.01146 0.10056,0.10674 2.93853,8.55737 6.30659,18.77917 4.55483,13.82352 6.25132,18.65337 6.62165,18.85156 0.75067,0.40175 9.0561,0.34618 9.60542,-0.0643 0.27121,-0.20265 2.77257,-7.47801 6.45865,-18.78542 3.30881,-10.15008 6.08075,-18.45469 6.15987,-18.45469 0.0791,0 1.22963,8.34848 2.55669,18.55217 1.72756,13.28311 2.51559,18.61726 2.77463,18.78136 0.19898,0.12606 3.2263,0.23103 6.72737,0.23326 4.83975,0.003 6.47934,-0.0791 6.8402,-0.34301 0.45133,-0.33002 0.27288,-1.85636 -3.63688,-31.10742 -2.29611,-17.17853 -4.25,-30.92727 -4.4252,-31.13837 -0.43239,-0.52099 -16.1679,-0.56571 -16.59825,-0.0472 -0.15101,0.18195 -2.79773,8.06984 -5.8816,17.52865 -3.08387,9.4588 -5.68358,17.28118 -5.77713,17.38305 -0.0935,0.10187 -2.71437,-7.63719 -5.82406,-17.19792 -3.10968,-9.56073 -5.77339,-17.53197 -5.91936,-17.71387 -0.20219,-0.25198 -2.22646,-0.32976 -8.50122,-0.32668 -4.52971,0.002 -8.39662,0.10595 -8.59314,0.23048 -0.25424,0.16111 -1.07216,5.82707 -2.83538,19.64126 -1.36293,10.67816 -2.54656,19.79948 -2.63028,20.2696 l -0.15221,0.85477 -5.74366,0.0713 -5.74366,0.0713 -0.0744,3.41887 c -0.0556,2.55747 0.011,3.47307 0.26458,3.63397 0.18644,0.11831 2.60431,0.21692 5.37305,0.21915 l 5.03408,0.004 -0.10041,1.05283 -0.1004,1.05283 -5.19826,0.0716 -5.19825,0.0717 -0.0741,3.37697 -0.0741,3.37697 0.68662,0.26105 c 0.37764,0.14358 2.53758,0.26105 4.79988,0.26105 h 4.11326 l -0.14838,0.8599 c -0.51883,3.00666 -0.52219,3.4525 -0.0287,3.81332 0.59387,0.43425 12.8139,0.5164 13.60786,0.0915 z"
         id="path116"
         inkscape:connector-curvature="0" />
    </g>
  </g>
</svg>
